<?xml version="1.0" standalone="no"?>
<!DOCTYPE svg PUBLIC "-//W3C//DTD SVG 20010904//EN"
 "http://www.w3.org/TR/2001/REC-SVG-20010904/DTD/svg10.dtd">
<svg version="1.0" xmlns="http://www.w3.org/2000/svg"
 width="500.000000pt" height="500.000000pt" viewBox="0 0 500.000000 500.000000"
 preserveAspectRatio="xMidYMid meet">

<g transform="translate(0.000000,500.000000) scale(0.100000,-0.100000)"
fill="#000000" stroke="none">
<path d="M2320 4994 c-19 -2 -78 -9 -130 -15 -467 -53 -946 -265 -1315 -581
-471 -404 -769 -957 -856 -1588 -17 -122 -18 -497 -1 -615 58 -412 185 -751
407 -1085 397 -598 1032 -990 1765 -1091 122 -17 497 -18 615 -1 412 58 751
185 1085 407 598 397 990 1032 1091 1765 17 122 18 497 1 615 -58 412 -185
751 -407 1085 -391 588 -1016 981 -1730 1086 -96 14 -453 27 -525 18z m530
-119 c496 -77 945 -296 1303 -635 242 -229 449 -533 573 -842 212 -528 230
-1122 49 -1663 -221 -658 -732 -1202 -1377 -1461 -528 -212 -1122 -230 -1663
-49 -658 221 -1202 732 -1461 1377 -212 528 -230 1122 -49 1663 221 658 732
1202 1377 1461 200 80 438 139 658 163 122 14 465 5 590 -14z"/>
<path d="M2355 3994 c-229 -33 -374 -77 -544 -164 -198 -103 -383 -261 -521
-445 -121 -162 -224 -401 -267 -620 -24 -125 -24 -405 0 -530 44 -222 147
-460 271 -625 79 -105 215 -241 321 -320 162 -121 401 -224 620 -267 125 -24
405 -24 530 0 222 44 460 147 625 271 105 79 241 215 320 321 121 162 224 401
267 620 24 125 24 405 0 530 -44 222 -147 460 -271 625 -79 106 -216 241 -321
320 -161 120 -388 219 -594 261 -92 19 -366 33 -436 23z m410 -119 c566 -117
980 -528 1107 -1096 30 -137 33 -407 5 -539 -121 -573 -528 -985 -1098 -1112
-137 -30 -407 -33 -539 -5 -573 121 -985 528 -1112 1098 -30 137 -33 407 -5
539 121 571 537 994 1093 1109 55 11 115 22 134 25 76 9 338 -3 415 -19z"/>
<path d="M2490 2942 l0 -479 448 -208 c246 -115 450 -210 454 -212 9 -5 50 75
44 85 -3 4 -194 95 -425 202 l-421 195 0 448 0 447 -50 0 -50 0 0 -478z"/>
</g>
</svg>
